<svg width="16" height="16" viewBox="0 0 16 16" fill="none" xmlns="http://www.w3.org/2000/svg">
<path fill-rule="evenodd" clip-rule="evenodd" d="M7.99334 1.33334C4.31334 1.33334 1.33334 4.32001 1.33334 8.00001C1.33334 11.68 4.31334 14.6667 7.99334 14.6667C11.68 14.6667 14.6667 11.68 14.6667 8.00001C14.6667 4.32001 11.68 1.33334 7.99334 1.33334ZM8.66667 8.66668V4.66668H7.33334V8.66668H8.66667ZM8.66667 11.3333V10H7.33334V11.3333H8.66667ZM2.66667 8.00001C2.66667 10.9467 5.05334 13.3333 8 13.3333C10.9467 13.3333 13.3333 10.9467 13.3333 8.00001C13.3333 5.05334 10.9467 2.66668 8 2.66668C5.05334 2.66668 2.66667 5.05334 2.66667 8.00001Z" fill="#6F6F76"/>
</svg>
