<svg width="8" height="8" viewBox="0 0 8 8" fill="none" xmlns="http://www.w3.org/2000/svg">
<path fill-rule="evenodd" clip-rule="evenodd" d="M0.666748 3.99996C0.666748 2.15996 2.16008 0.666626 4.00008 0.666626C5.84008 0.666626 7.33341 2.15996 7.33341 3.99996C7.33341 5.83996 5.84008 7.33329 4.00008 7.33329C2.16008 7.33329 0.666748 5.83996 0.666748 3.99996ZM4.33341 5.99994H3.66674V5.33327H4.33341V5.99994ZM4.00005 6.66661C2.53005 6.66661 1.33338 5.46994 1.33338 3.99994C1.33338 2.52994 2.53005 1.33327 4.00005 1.33327C5.47005 1.33327 6.66671 2.52994 6.66671 3.99994C6.66671 5.46994 5.47005 6.66661 4.00005 6.66661ZM2.66675 3.33331C2.66675 2.59665 3.26342 1.99998 4.00009 1.99998C4.73675 1.99998 5.33342 2.59665 5.33342 3.33331C5.33342 3.76095 5.07008 3.99109 4.81367 4.21516C4.57043 4.42773 4.33342 4.63486 4.33342 4.99998H3.66675C3.66675 4.39289 3.98079 4.15218 4.2569 3.94054C4.4735 3.77452 4.66675 3.62638 4.66675 3.33331C4.66675 2.96665 4.36675 2.66665 4.00009 2.66665C3.63342 2.66665 3.33342 2.96665 3.33342 3.33331H2.66675Z" fill="#6F6F76"/>
</svg>
