<svg width="16" height="16" viewBox="0 0 16 16" fill="none" xmlns="http://www.w3.org/2000/svg">
<path fill-rule="evenodd" clip-rule="evenodd" d="M7.33325 10H4.66659C3.56659 10 2.66659 9.1 2.66659 8C2.66659 6.9 3.56659 6 4.66659 6H7.33325V4.66666H4.66659C2.82659 4.66666 1.33325 6.16 1.33325 8C1.33325 9.84 2.82659 11.3333 4.66659 11.3333H7.33325V10ZM11.3333 4.66666H8.66659V6H11.3333C12.4333 6 13.3333 6.9 13.3333 8C13.3333 9.1 12.4333 10 11.3333 10H8.66659V11.3333H11.3333C13.1733 11.3333 14.6666 9.84 14.6666 8C14.6666 6.16 13.1733 4.66666 11.3333 4.66666ZM10.6666 7.33333H5.33325V8.66666H10.6666V7.33333Z" fill="#6F6F76"/>
</svg>
