<svg width="12" height="12" viewBox="0 0 12 12" fill="none" xmlns="http://www.w3.org/2000/svg">
<path fill-rule="evenodd" clip-rule="evenodd" d="M9.75114 6C9.75114 6.17 9.73614 6.33 9.71614 6.49L10.7711 7.315C10.8661 7.39 10.8911 7.525 10.8311 7.635L9.83114 9.365C9.78614 9.445 9.70114 9.49 9.61614 9.49C9.58614 9.49 9.55614 9.485 9.52614 9.475L8.28114 8.975C8.02114 9.17 7.74114 9.34 7.43614 9.465L7.24614 10.79C7.23114 10.91 7.12614 11 7.00114 11H5.00114C4.87614 11 4.77114 10.91 4.75614 10.79L4.56614 9.465C4.26114 9.34 3.98114 9.175 3.72114 8.975L2.47614 9.475C2.45114 9.485 2.42114 9.49 2.39114 9.49C2.30114 9.49 2.21614 9.445 2.17114 9.365L1.17114 7.635C1.11114 7.525 1.13614 7.39 1.23114 7.315L2.28614 6.49C2.26614 6.33 2.25114 6.165 2.25114 6C2.25114 5.835 2.26614 5.67 2.28614 5.51L1.23114 4.685C1.13614 4.61 1.10614 4.475 1.17114 4.365L2.17114 2.635C2.21614 2.555 2.30114 2.51 2.38614 2.51C2.41614 2.51 2.44614 2.515 2.47614 2.525L3.72114 3.025C3.98114 2.83 4.26114 2.66 4.56614 2.535L4.75614 1.21C4.77114 1.09 4.87614 1 5.00114 1H7.00114C7.12614 1 7.23114 1.09 7.24614 1.21L7.43614 2.535C7.74114 2.66 8.02114 2.825 8.28114 3.025L9.52614 2.525C9.55114 2.515 9.58114 2.51 9.61114 2.51C9.70114 2.51 9.78614 2.555 9.83114 2.635L10.8311 4.365C10.8911 4.475 10.8661 4.61 10.7711 4.685L9.71614 5.51C9.73614 5.67 9.75114 5.83 9.75114 6ZM8.75114 6C8.75114 5.895 8.74614 5.79 8.72614 5.635L8.65614 5.07L9.10114 4.72L9.63614 4.295L9.28614 3.69L8.65114 3.945L8.12114 4.16L7.66614 3.81C7.46614 3.66 7.26614 3.545 7.05114 3.455L6.52114 3.24L6.44114 2.675L6.34614 2H5.65114L5.55114 2.675L5.47114 3.24L4.94114 3.455C4.73614 3.54 4.53114 3.66 4.31614 3.82L3.86614 4.16L3.34614 3.95L2.71114 3.695L2.36114 4.3L2.90114 4.72L3.34614 5.07L3.27614 5.635C3.26114 5.785 3.25114 5.9 3.25114 6C3.25114 6.1 3.26114 6.215 3.27614 6.37L3.34614 6.935L2.90114 7.285L2.36114 7.705L2.71114 8.31L3.34614 8.055L3.87614 7.84L4.33114 8.19C4.53114 8.34 4.73114 8.455 4.94614 8.545L5.47614 8.76L5.55614 9.325L5.65114 10H6.35114L6.45114 9.325L6.53114 8.76L7.06114 8.545C7.26614 8.46 7.47114 8.34 7.68614 8.18L8.13614 7.84L8.65614 8.05L9.29114 8.305L9.64114 7.7L9.10114 7.28L8.65614 6.93L8.72614 6.365C8.74114 6.215 8.75114 6.105 8.75114 6ZM6.00114 4C4.89614 4 4.00114 4.895 4.00114 6C4.00114 7.105 4.89614 8 6.00114 8C7.10614 8 8.00114 7.105 8.00114 6C8.00114 4.895 7.10614 4 6.00114 4ZM5.00114 6C5.00114 6.55 5.45114 7 6.00114 7C6.55114 7 7.00114 6.55 7.00114 6C7.00114 5.45 6.55114 5 6.00114 5C5.45114 5 5.00114 5.45 5.00114 6Z" fill="#6F6F76"/>
</svg>
