<svg width="115" height="33" viewBox="0 0 115 33" fill="none" xmlns="http://www.w3.org/2000/svg">
<path d="M0.5 15C0.5 6.99187 6.99187 0.5 15 0.5H100C108.008 0.5 114.5 6.99187 114.5 15V18C114.5 26.0081 108.008 32.5 100 32.5H15C6.99187 32.5 0.5 26.0081 0.5 18V15Z" stroke="#6F6F76"/>
<path d="M8.308 12.6H11.02C12.14 12.6 13.036 12.892 13.708 13.476C14.38 14.052 14.716 14.812 14.716 15.756C14.716 16.708 14.38 17.472 13.708 18.048C13.036 18.624 12.14 18.912 11.02 18.912H9.604V21H8.308V12.6ZM9.604 17.7H11.104C11.792 17.7 12.36 17.54 12.808 17.22C13.264 16.892 13.492 16.404 13.492 15.756C13.492 15.124 13.264 14.644 12.808 14.316C12.352 13.988 11.784 13.824 11.104 13.824H9.604V17.7ZM21.9477 21H21.1317L21.0597 19.896C20.8357 20.256 20.5277 20.544 20.1357 20.76C19.7437 20.968 19.3157 21.072 18.8517 21.072C18.0037 21.072 17.2957 20.776 16.7277 20.184C16.1677 19.584 15.8877 18.856 15.8877 18C15.8877 17.136 16.1677 16.408 16.7277 15.816C17.2957 15.216 18.0037 14.916 18.8517 14.916C19.3157 14.916 19.7437 15.024 20.1357 15.24C20.5277 15.456 20.8357 15.744 21.0597 16.104L21.1317 15H21.9477V21ZM17.6397 19.38C18.0077 19.74 18.4477 19.92 18.9597 19.92C19.4717 19.92 19.9117 19.74 20.2797 19.38C20.6557 19.012 20.8437 18.552 20.8437 18C20.8437 17.44 20.6557 16.98 20.2797 16.62C19.9117 16.252 19.4717 16.068 18.9597 16.068C18.4477 16.068 18.0077 16.252 17.6397 16.62C17.2717 16.98 17.0877 17.44 17.0877 18C17.0877 18.56 17.2717 19.02 17.6397 19.38ZM29.8235 15V20.244C29.8235 21.148 29.5595 21.88 29.0315 22.44C28.5115 23.008 27.7915 23.292 26.8715 23.292C25.8635 23.292 24.9915 22.984 24.2555 22.368L24.9395 21.636C25.5635 22.012 26.2075 22.2 26.8715 22.2C27.4235 22.2 27.8515 22.052 28.1555 21.756C28.4675 21.46 28.6235 21.04 28.6235 20.496V19.944C28.4235 20.28 28.1475 20.532 27.7955 20.7C27.4515 20.86 27.0875 20.94 26.7035 20.94C25.8715 20.94 25.2275 20.684 24.7715 20.172C24.3155 19.66 24.0875 18.956 24.0875 18.06V15H25.2875V17.988C25.2875 19.188 25.8195 19.788 26.8835 19.788C27.4275 19.788 27.8555 19.616 28.1675 19.272C28.4795 18.92 28.6355 18.416 28.6355 17.76V15H29.8235ZM38.5534 14.928C39.5134 14.928 40.3014 15.296 40.9174 16.032L40.1974 16.812C39.7334 16.324 39.1854 16.08 38.5534 16.08C38.0414 16.08 37.6014 16.26 37.2334 16.62C36.8654 16.98 36.6814 17.44 36.6814 18C36.6814 18.56 36.8654 19.02 37.2334 19.38C37.6014 19.74 38.0414 19.92 38.5534 19.92C39.1694 19.92 39.7174 19.676 40.1974 19.188L40.9174 19.968C40.3014 20.704 39.5134 21.072 38.5534 21.072C37.6974 21.072 36.9694 20.772 36.3694 20.172C35.7774 19.572 35.4814 18.848 35.4814 18C35.4814 17.152 35.7774 16.428 36.3694 15.828C36.9694 15.228 37.6974 14.928 38.5534 14.928ZM48.3383 21H47.5223L47.4503 19.896C47.2263 20.256 46.9183 20.544 46.5263 20.76C46.1343 20.968 45.7063 21.072 45.2423 21.072C44.3943 21.072 43.6863 20.776 43.1183 20.184C42.5583 19.584 42.2783 18.856 42.2783 18C42.2783 17.136 42.5583 16.408 43.1183 15.816C43.6863 15.216 44.3943 14.916 45.2423 14.916C45.7063 14.916 46.1343 15.024 46.5263 15.24C46.9183 15.456 47.2263 15.744 47.4503 16.104L47.5223 15H48.3383V21ZM44.0303 19.38C44.3983 19.74 44.8383 19.92 45.3503 19.92C45.8623 19.92 46.3023 19.74 46.6703 19.38C47.0463 19.012 47.2343 18.552 47.2343 18C47.2343 17.44 47.0463 16.98 46.6703 16.62C46.3023 16.252 45.8623 16.068 45.3503 16.068C44.8383 16.068 44.3983 16.252 44.0303 16.62C43.6623 16.98 43.4783 17.44 43.4783 18C43.4783 18.56 43.6623 19.02 44.0303 19.38ZM53.6582 14.916C54.4902 14.916 55.1342 15.176 55.5902 15.696C56.0462 16.208 56.2742 16.912 56.2742 17.808V21H55.0742V17.868C55.0742 16.668 54.5422 16.068 53.4782 16.068C52.9422 16.068 52.5182 16.244 52.2062 16.596C51.8942 16.94 51.7382 17.44 51.7382 18.096V21H50.5382V12.6H51.7382V15.912C51.9382 15.576 52.2102 15.328 52.5542 15.168C52.8982 15 53.2662 14.916 53.6582 14.916ZM61.4732 14.916C62.3052 14.916 62.9492 15.176 63.4052 15.696C63.8612 16.208 64.0892 16.912 64.0892 17.808V21H62.8892V17.868C62.8892 16.668 62.3572 16.068 61.2932 16.068C60.7572 16.068 60.3332 16.244 60.0212 16.596C59.7092 16.94 59.5532 17.44 59.5532 18.096V21H58.3532V15H59.1692L59.2532 16.152C59.4692 15.744 59.7732 15.436 60.1652 15.228C60.5652 15.02 61.0012 14.916 61.4732 14.916ZM69.2896 14.916C70.1216 14.916 70.7656 15.176 71.2216 15.696C71.6776 16.208 71.9056 16.912 71.9056 17.808V21H70.7056V17.868C70.7056 16.668 70.1736 16.068 69.1096 16.068C68.5736 16.068 68.1496 16.244 67.8376 16.596C67.5256 16.94 67.3696 17.44 67.3696 18.096V21H66.1696V15H66.9856L67.0696 16.152C67.2856 15.744 67.5896 15.436 67.9816 15.228C68.3816 15.02 68.8176 14.916 69.2896 14.916ZM76.662 14.916C77.302 14.916 77.85 15.064 78.306 15.36C78.762 15.656 79.102 16.072 79.326 16.608C79.438 16.856 79.502 17.148 79.518 17.484C79.534 17.812 79.506 18.088 79.434 18.312H74.862C74.862 18.824 75.034 19.232 75.378 19.536C75.73 19.832 76.182 19.98 76.734 19.98C77.43 19.98 78.074 19.804 78.666 19.452L79.314 20.148C78.506 20.764 77.646 21.072 76.734 21.072C75.814 21.072 75.066 20.784 74.49 20.208C73.914 19.632 73.626 18.896 73.626 18C73.626 17.128 73.902 16.396 74.454 15.804C75.014 15.212 75.75 14.916 76.662 14.916ZM76.674 16.008C76.178 16.008 75.766 16.16 75.438 16.464C75.11 16.76 74.934 17.12 74.91 17.544H78.354C78.354 17.336 78.306 17.14 78.21 16.956C78.082 16.668 77.882 16.44 77.61 16.272C77.346 16.096 77.034 16.008 76.674 16.008ZM81.3116 21V12.6H82.5116V21H81.3116ZM86.7866 14.916H86.9066C87.3786 14.916 87.8346 15.02 88.2746 15.228C88.7226 15.428 89.0746 15.696 89.3306 16.032L88.6466 16.668C88.4546 16.436 88.1906 16.248 87.8546 16.104C87.5186 15.952 87.2066 15.876 86.9186 15.876H86.8226C86.4706 15.884 86.1826 15.956 85.9586 16.092C85.7426 16.228 85.6346 16.416 85.6346 16.656C85.6346 16.864 85.7146 17.024 85.8746 17.136C86.0426 17.248 86.3426 17.324 86.7746 17.364L87.3266 17.424C88.7426 17.544 89.4506 18.152 89.4506 19.248C89.4506 19.784 89.2306 20.224 88.7906 20.568C88.3506 20.904 87.7786 21.072 87.0746 21.072H87.0026C86.4266 21.072 85.8826 20.964 85.3706 20.748C84.8666 20.532 84.4986 20.248 84.2666 19.896L84.9506 19.248C85.1266 19.496 85.4066 19.7 85.7906 19.86C86.1826 20.02 86.5826 20.1 86.9906 20.1H87.0386C87.3986 20.1 87.6906 20.032 87.9146 19.896C88.1386 19.76 88.2506 19.556 88.2506 19.284C88.2506 18.988 88.1546 18.784 87.9626 18.672C87.7706 18.56 87.4786 18.484 87.0866 18.444L86.5706 18.384C85.1466 18.256 84.4346 17.704 84.4346 16.728C84.4346 16.176 84.6586 15.74 85.1066 15.42C85.5546 15.092 86.1146 14.924 86.7866 14.916Z" fill="#2C2C2C"/>
<path fill-rule="evenodd" clip-rule="evenodd" d="M104.751 17C104.751 17.17 104.736 17.33 104.716 17.49L105.771 18.315C105.866 18.39 105.891 18.525 105.831 18.635L104.831 20.365C104.786 20.445 104.701 20.49 104.616 20.49C104.586 20.49 104.556 20.485 104.526 20.475L103.281 19.975C103.021 20.17 102.741 20.34 102.436 20.465L102.246 21.79C102.231 21.91 102.126 22 102.001 22H100.001C99.8761 22 99.7711 21.91 99.7561 21.79L99.5661 20.465C99.2611 20.34 98.9811 20.175 98.7211 19.975L97.4761 20.475C97.4511 20.485 97.4211 20.49 97.3911 20.49C97.3011 20.49 97.2161 20.445 97.1711 20.365L96.1711 18.635C96.1111 18.525 96.1361 18.39 96.2311 18.315L97.2861 17.49C97.2661 17.33 97.2511 17.165 97.2511 17C97.2511 16.835 97.2661 16.67 97.2861 16.51L96.2311 15.685C96.1361 15.61 96.1061 15.475 96.1711 15.365L97.1711 13.635C97.2161 13.555 97.3011 13.51 97.3861 13.51C97.4161 13.51 97.4461 13.515 97.4761 13.525L98.7211 14.025C98.9811 13.83 99.2611 13.66 99.5661 13.535L99.7561 12.21C99.7711 12.09 99.8761 12 100.001 12H102.001C102.126 12 102.231 12.09 102.246 12.21L102.436 13.535C102.741 13.66 103.021 13.825 103.281 14.025L104.526 13.525C104.551 13.515 104.581 13.51 104.611 13.51C104.701 13.51 104.786 13.555 104.831 13.635L105.831 15.365C105.891 15.475 105.866 15.61 105.771 15.685L104.716 16.51C104.736 16.67 104.751 16.83 104.751 17ZM103.751 17C103.751 16.895 103.746 16.79 103.726 16.635L103.656 16.07L104.101 15.72L104.636 15.295L104.286 14.69L103.651 14.945L103.121 15.16L102.666 14.81C102.466 14.66 102.266 14.545 102.051 14.455L101.521 14.24L101.441 13.675L101.346 13H100.651L100.551 13.675L100.471 14.24L99.9411 14.455C99.7361 14.54 99.5311 14.66 99.3161 14.82L98.8661 15.16L98.3461 14.95L97.7111 14.695L97.3611 15.3L97.9011 15.72L98.3461 16.07L98.2761 16.635C98.2611 16.785 98.2511 16.9 98.2511 17C98.2511 17.1 98.2611 17.215 98.2761 17.37L98.3461 17.935L97.9011 18.285L97.3611 18.705L97.7111 19.31L98.3461 19.055L98.8761 18.84L99.3311 19.19C99.5311 19.34 99.7311 19.455 99.9461 19.545L100.476 19.76L100.556 20.325L100.651 21H101.351L101.451 20.325L101.531 19.76L102.061 19.545C102.266 19.46 102.471 19.34 102.686 19.18L103.136 18.84L103.656 19.05L104.291 19.305L104.641 18.7L104.101 18.28L103.656 17.93L103.726 17.365C103.741 17.215 103.751 17.105 103.751 17ZM101.001 15C99.8961 15 99.0011 15.895 99.0011 17C99.0011 18.105 99.8961 19 101.001 19C102.106 19 103.001 18.105 103.001 17C103.001 15.895 102.106 15 101.001 15ZM100.001 17C100.001 17.55 100.451 18 101.001 18C101.551 18 102.001 17.55 102.001 17C102.001 16.45 101.551 16 101.001 16C100.451 16 100.001 16.45 100.001 17Z" fill="#6F6F76"/>
</svg>
