<svg width="16" height="16" viewBox="0 0 16 16" fill="none" xmlns="http://www.w3.org/2000/svg">
<path fill-rule="evenodd" clip-rule="evenodd" d="M5.99991 8C7.28658 8 8.33325 6.95333 8.33325 5.66666C8.33325 4.37999 7.28658 3.33333 5.99991 3.33333C4.71325 3.33333 3.66658 4.37999 3.66658 5.66666C3.66658 6.95333 4.71325 8 5.99991 8ZM5.99992 4.66666C6.55325 4.66666 6.99992 5.11333 6.99992 5.66666C6.99992 6.21999 6.55325 6.66666 5.99992 6.66666C5.44659 6.66666 4.99992 6.21999 4.99992 5.66666C4.99992 5.11333 5.44659 4.66666 5.99992 4.66666ZM3.17992 11.3333H6.03325C6.01325 11.44 5.99992 11.5533 5.99992 11.6667V12.6667H1.33325V11.6667C1.33325 10.1133 4.43992 9.33333 5.99992 9.33333C6.37325 9.33333 6.83325 9.37999 7.31992 9.46666C6.84659 9.78666 6.45325 10.1867 6.22659 10.6733C6.18992 10.6733 6.15159 10.6717 6.11325 10.67C6.07492 10.6683 6.03659 10.6667 5.99992 10.6667C4.97992 10.6667 3.83992 11 3.17992 11.3333ZM10.9999 9.66666C9.77325 9.66666 7.33325 10.34 7.33325 11.6667V12.6667H14.6666V11.6667C14.6666 10.34 12.2266 9.66666 10.9999 9.66666ZM12.6666 7C12.6666 7.62666 12.3133 8.16666 11.8066 8.45333C11.5666 8.58666 11.2933 8.66666 10.9999 8.66666C10.7066 8.66666 10.4333 8.58666 10.1932 8.45333C9.68658 8.16666 9.33325 7.62666 9.33325 7C9.33325 6.08 10.0799 5.33333 10.9999 5.33333C11.9199 5.33333 12.6666 6.08 12.6666 7Z" fill="#6F6F76"/>
</svg>
